PathFileType	4	(X/Y/Z)	C:/Users/beibeiliu/ov580/test_trc\sequence.11_training_dense_right.trc
DataRate	CameraRate	NumFrames	NumMarkers	Units	OrigDataRate	OrigDataStartFrame	OrigNumFrames
120	120	12	19	mm	120	1	124
Frame#	Time	ThumbCMC			ThumbMCP			ThumbIP			ThumbTip			IndexMCP			IndexPIP			IndexTip			MiddleMCP			MiddlePIP			MiddleTip			RingMCP			RingPIP			RingTip			PinkyMCP			PinkyPIP			PinkyTip			BackHand1			BackHand2			BackHand3	
		X0	Y0	Z0	X1	Y1	Z1	X2	Y2	Z2	X3	Y3	Z3	X4	Y4	Z4	X5	Y5	Z5	X6	Y6	Z6	X7	Y7	Z7	X8	Y8	Z8	X9	Y9	Z9	X10	Y10	Z10	X11	Y11	Z11	X12	Y12	Z12	X13	Y13	Z13	X14	Y14	Z14	X15	Y15	Z15	X16	Y16	Z16	X17	Y17	Z17	X18	Y18	Z18	
0	0	233.379	-16.7173	138.206	224.235	-5.23259	102.512	221.73	-11.1899	73.7633	217.569	-27.7997	54.7276	275.194	-58.4591	94.0035	284.521	-62.3778	65.99	292.037	-65.388	45.9207	254.416	-76.6925	83.4133	248.334	-67.7705	52.9382	222.673	-47.186	39.0306	239.967	-89.2126	86.771	236.232	-89.2768	57.1221	223.813	-77.7659	31.0024	221.211	-99.644	100.714	220.378	-114.46	82.2506	219.748	-130.515	65.7359	231	-78.5895	139.732	221.622	-67.8899	167.862	247.091	-50.2421	153.496	
1	0.00833333	224.367	0.219677	128.651	209.636	1.89802	100.934	210.374	-5.63427	69.6098	210.166	-18.0544	50.0425	275.419	-23.4932	87.8498	286.634	-23.4764	60.1822	290.096	-30.6853	34.5087	264.763	-44.9309	79.6238	250.349	-43.4587	46.5094	218.888	-37.0686	35.849	259.182	-63.7791	81.6516	251.948	-73.0011	57.3207	236.018	-63.6894	29.6882	245.027	-81.7469	98.9409	250.473	-97.6409	79.4141	257.542	-109.271	59.2355	246.535	-56.9456	136.618	234.281	-50.2546	164.186	252.096	-24.2198	146.284	
2	0.0166667	200.034	8.33334	126.582	189.29	0.0505747	93.9369	189.388	-5.71197	64.5608	198.197	-21.6198	48.0405	257.268	2.39121	78.2482	264.603	6.01254	53.3033	269.856	-2.68874	27.3131	255.973	-21.2092	66.9159	240.708	-27.2042	40.2396	207.038	-36.9131	33.0782	259.035	-43.3321	77.3665	254.844	-49.7864	52.0447	234.13	-54.8148	27.7237	256.671	-61.7187	94.7605	263.646	-75.1464	77.9299	274.544	-84.7707	59.7108	248.303	-36.3626	130.125	237.649	-35.2607	157.459	239.088	-4.57471	140.208	
3	0.025	170.712	3.65861	117.02	158.37	-10.1081	89.9495	164.772	-21.007	60.0427	176.709	-35.3619	43.4378	220.081	14.4881	67.7315	226.601	14.7404	36.281	232.547	4.38546	13.2517	232.392	-12.7935	60.3618	218.38	-28.7279	33.2949	191.798	-48.5233	32.2052	242.328	-26.8111	67.9593	238.641	-41.8405	41.9428	218.222	-54.2739	24.5069	246.66	-44.1951	89.8269	257.203	-54.4819	74.6704	274.548	-64.8039	53.4418	231.755	-16.1718	121.864	220.277	-19.1834	151.654	210.401	9.63244	125.629	
4	0.0333333	140.187	-6.84739	112.956	132.353	-28.2068	90.7441	136.799	-40.7518	63.0662	154.427	-53.8749	47.2513	181.948	7.82299	54.5834	182.507	6.39269	28.5692	188.791	-8.18614	4.86681	195.891	-10.8231	54.7008	187.699	-36.9132	29.8173	168.819	-61.9647	32.9171	211.445	-23.7901	65.1933	209.941	-42.4423	36.8576	194.319	-65.7973	24.0748	224.431	-36.7825	86.8124	240.805	-44.4033	66.4854	256.566	-52.4299	49.3794	203.832	-8.99107	116.325	200.913	-8.87311	145.352	180.046	7.96352	121.556	
5	0.0416667	116.702	-16.0354	114.617	111.25	-40.978	98.2277	112.368	-56.4911	76.8754	127.555	-69.4094	58.9085	145.053	-5.80672	51.2755	149.814	-15.9248	24.0981	146.142	-30.4608	-0.194407	167.166	-23.6493	52.1543	161.955	-51.1491	32.6476	143.698	-77.8768	41.0944	182.666	-32.0658	58.3967	184.677	-54.6335	39.8379	167.375	-77.9718	32.798	202.829	-39.709	81.3764	212.197	-46.8225	65.631	232.898	-56.6934	46.2752	182.848	-11.7901	109.019	176.731	-4.5209	136.032	154.071	5.20301	112.182	
6	0.05	102.751	-13.67	120.189	87.463	-39.0441	106.9	84.6528	-59.4268	84.0786	96.1836	-76.5799	68.7103	124.118	-15.9134	52.2391	119.19	-27.8017	25.3974	120.633	-49.3722	8.11259	140.689	-33.8958	51.8881	130.674	-62.6424	38.6174	111.797	-87.4275	54.7445	161.177	-45.8162	60.5555	155.016	-70.2176	45.1255	135.883	-93.4971	44.5566	175.231	-49.9991	82.1014	186.967	-66.2902	65.182	198.595	-79.2498	44.7915	163.015	-13.829	107.98	161.127	-4.14214	134.218	137.131	4.02762	110.048	
7	0.0583333	101.293	0.393825	126.824	78.825	-21.9921	112.611	68.1401	-40.5911	93.167	71.5202	-62.2474	75.8761	116.287	-15.1715	53.9434	107.825	-32.6376	29.9219	97.1795	-51.1213	12.6977	125.865	-41.1593	55.116	104.079	-63.2295	45.874	79.2544	-80.1051	68.8156	140.594	-56.8674	64.1939	124.694	-78.4217	51.06	98.13	-89.5436	51.9963	153.602	-63.4034	86.2855	153.732	-79.9733	70.0295	159.076	-99.8085	50.4809	157.473	-24.6339	104.367	162.227	-11.6517	135.643	139.226	5.37649	112.119	
8	0.0666667	118.045	11.6047	120.394	87.2561	6.40355	111.267	71.0928	-6.65123	94.182	61.5519	-27.1665	78.9339	122.718	-13.8563	53.1256	108.693	-22.9641	30.7414	93.1128	-36.9955	17.6523	120.546	-38.1225	57.3006	87.7303	-48.6528	48.9848	62.9349	-48.3604	64.6665	127.074	-53.6035	68.589	104.035	-67.1186	54.1407	70.1233	-70.0274	54.3934	133.258	-70.4628	88.2689	122.902	-84.5141	71.8023	117.388	-104.775	59.7617	156.802	-38.3788	108.123	165.047	-27.8617	134.381	153.814	-2.63871	112.806	
9	0.075	142.852	20.3692	120.249	110.127	25.0626	106.004	90.5738	20.6654	88.2034	74.0357	3.35654	72.2655	136.969	-14.8459	51.9426	123.079	-14.0943	30.692	98.4584	-21.8359	13.7582	123.361	-31.24	52.9079	90.8242	-29.5521	45.1893	65.8811	-16.9908	56.9983	122.313	-50.9348	68.6961	97.9248	-53.0883	52.316	68.1315	-43.6076	47.3004	119.409	-68.6211	90.4526	105.788	-77.9853	74.4438	94.3553	-91.8277	58.1709	153.709	-40.1188	110.527	163.609	-38.4836	134.909	168.267	-14.4202	113.26	
10	0.0833333	163	12.2125	117.358	136.2	30.0869	99.6606	116.188	32.8131	80.9467	97.7025	18.1724	65.6577	157.234	-17.0298	54.2058	141	-14.9909	26.0833	120.289	-18.5715	12.1945	134.978	-32.6193	53.8235	108.49	-24.4183	40.8678	84.831	-1.27544	49.9223	125.138	-50.4311	65.2284	104.484	-46.2539	48.5239	80.8316	-29.5289	38.9355	116.821	-63.9386	90.3852	103.707	-70.6395	73.484	88.1016	-84.5443	55.267	157.627	-46.1686	113.769	167.735	-45.513	140.452	177.136	-23.7111	116.432	
11	0.0916667	181.463	4.16514	122.935	159.321	18.5316	101.174	141.425	25.0201	74.2513	122.925	16.3374	57.1795	177.018	-28.5445	54.0657	163.668	-27.8221	28.1315	144.666	-22.8152	8.41906	155.658	-39.9781	56.4128	129.727	-26.996	36.8708	111.844	1.07088	40.5155	139.056	-56.0768	65.7436	119.77	-50.0998	46.6302	101.78	-27.6595	31.5529	127.272	-65.6401	84.6933	110.963	-74.5144	70.3451	96.0048	-85.1075	55.3448	162.014	-57.1312	112.905	170.629	-53.3199	143.206	189.562	-34.2801	116.399	
